<svg width="32" height="32" viewBox="0 0 32 32" fill="none" xmlns="http://www.w3.org/2000/svg">
  <!-- 定义渐变和阴影 -->
  <defs>
    <linearGradient id="gradient32" x1="0%" y1="0%" x2="100%" y2="100%">
      <stop offset="0%" style="stop-color:#667eea;stop-opacity:1" />
      <stop offset="100%" style="stop-color:#764ba2;stop-opacity:1" />
    </linearGradient>
    <linearGradient id="gradient232" x1="0%" y1="0%" x2="100%" y2="100%">
      <stop offset="0%" style="stop-color:#f093fb;stop-opacity:1" />
      <stop offset="100%" style="stop-color:#f5576c;stop-opacity:1" />
    </linearGradient>
    <filter id="shadow32">
      <feDropShadow dx="0" dy="2" stdDeviation="2" flood-color="rgba(0,0,0,0.2)"/>
    </filter>
  </defs>
  
  <!-- 外圆背景 -->
  <circle cx="16" cy="16" r="15" fill="url(#gradient32)" filter="url(#shadow32)"/>
  <circle cx="16" cy="16" r="14" fill="none" stroke="rgba(255,255,255,0.3)" stroke-width="1"/>
  
  <!-- 地球符号 -->
  <path d="M16 5C10 5 5 10 5 16C5 22 10 27 16 27C22 27 27 22 27 16C27 10 22 5 16 5Z" 
        fill="none" stroke="white" stroke-width="1.5" stroke-linecap="round"/>
  
  <!-- 经纬线 -->
  <path d="M16 5V27M5 16H27M8 8C8 8 12 12 16 12C20 12 24 8 24 8M8 24C8 24 12 20 16 20C20 20 24 24 24 24" 
        stroke="white" stroke-width="1.2" stroke-linecap="round" opacity="0.8"/>
  
  <!-- 语言切换箭头 -->
  <path d="M11 11L15 7L19 11M21 21L17 25L13 21" 
        stroke="white" stroke-width="2" stroke-linecap="round" stroke-linejoin="round" fill="none"/>
  
  <!-- 中心点 -->
  <circle cx="16" cy="16" r="2" fill="white"/>
  
  <!-- 高光效果 -->
  <ellipse cx="12" cy="10" rx="3" ry="2" fill="rgba(255,255,255,0.3)"/>
</svg>