<svg width="128" height="128" viewBox="0 0 128 128" fill="none" xmlns="http://www.w3.org/2000/svg">
  <!-- 定义渐变 -->
  <defs>
    <linearGradient id="globeGradient" x1="0%" y1="0%" x2="100%" y2="100%">
      <stop offset="0%" style="stop-color:#667eea;stop-opacity:1" />
      <stop offset="100%" style="stop-color:#764ba2;stop-opacity:1" />
    </linearGradient>
    <linearGradient id="textGradient" x1="0%" y1="0%" x2="100%" y2="100%">
      <stop offset="0%" style="stop-color:#f093fb;stop-opacity:1" />
      <stop offset="100%" style="stop-color:#f5576c;stop-opacity:1" />
    </linearGradient>
  </defs>
  
  <!-- 背景 -->
  <rect width="128" height="128" rx="20" fill="url(#globeGradient)"/>
  
  <!-- 地球轮廓 -->
  <circle cx="64" cy="50" r="25" fill="none" stroke="white" stroke-width="3"/>
  
  <!-- 地球内部线条 -->
  <path d="M39 50C39 50 51.5 55 64 55C76.5 55 89 50 89 50M64 25V75M44 35C44 35 54 40 64 40C74 40 84 35 84 35M44 65C44 65 54 60 64 60C74 60 84 65 84 65" 
        stroke="white" stroke-width="2" stroke-linecap="round" opacity="0.8"/>
  
  <!-- 翻译文字 -->
  <text x="64" y="100" text-anchor="middle" fill="white" font-size="24" font-weight="bold" font-family="Arial, sans-serif">TRANSLATE</text>
  
  <!-- 装饰性箭头 -->
  <path d="M30 80L40 70M98 80L88 70" stroke="rgba(255,255,255,0.6)" stroke-width="2" stroke-linecap="round"/>
  
  <!-- 高光 -->
  <ellipse cx="50" cy="35" rx="8" ry="5" fill="rgba(255,255,255,0.3)"/>
</svg>