<svg width="48" height="48" viewBox="0 0 48 48" fill="none" xmlns="http://www.w3.org/2000/svg">
  <!-- 定义渐变和阴影 -->
  <defs>
    <linearGradient id="gradient48" x1="0%" y1="0%" x2="100%" y2="100%">
      <stop offset="0%" style="stop-color:#667eea;stop-opacity:1" />
      <stop offset="100%" style="stop-color:#764ba2;stop-opacity:1" />
    </linearGradient>
    <linearGradient id="gradient248" x1="0%" y1="0%" x2="100%" y2="100%">
      <stop offset="0%" style="stop-color:#f093fb;stop-opacity:1" />
      <stop offset="100%" style="stop-color:#f5576c;stop-opacity:1" />
    </linearGradient>
    <filter id="shadow48">
      <feDropShadow dx="0" dy="3" stdDeviation="3" flood-color="rgba(0,0,0,0.25)"/>
    </filter>
    <filter id="innerShadow48">
      <feGaussianBlur in="SourceAlpha" stdDeviation="2"/>
      <feOffset dx="0" dy="2" result="offsetblur"/>
      <feFlood flood-color="rgba(0,0,0,0.3)"/>
      <feComposite in2="offsetblur" operator="in"/>
      <feMerge>
        <feMergeNode/>
        <feMergeNode in="SourceGraphic"/>
      </feMerge>
    </filter>
  </defs>
  
  <!-- 外圆背景 -->
  <circle cx="24" cy="24" r="22.5" fill="url(#gradient48)" filter="url(#shadow48)"/>
  <circle cx="24" cy="24" r="21" fill="none" stroke="rgba(255,255,255,0.3)" stroke-width="1.5"/>
  
  <!-- 地球符号 -->
  <path d="M24 7.5C15 7.5 7.5 15 7.5 24C7.5 33 15 40.5 24 40.5C33 40.5 40.5 33 40.5 24C40.5 15 33 7.5 24 7.5Z" 
        fill="none" stroke="white" stroke-width="2" stroke-linecap="round"/>
  
  <!-- 经纬线 -->
  <path d="M24 7.5V40.5M7.5 24H40.5M12 12C12 12 18 18 24 18C30 18 36 12 36 12M12 36C12 36 18 30 24 30C30 30 36 36 36 36" 
        stroke="white" stroke-width="1.8" stroke-linecap="round" opacity="0.8"/>
  
  <!-- 语言切换箭头 -->
  <path d="M16.5 16.5L22.5 10.5L28.5 16.5M31.5 31.5L25.5 37.5L19.5 31.5" 
        stroke="white" stroke-width="3" stroke-linecap="round" stroke-linejoin="round" fill="none"/>
  
  <!-- 中心点 -->
  <circle cx="24" cy="24" r="3" fill="white"/>
  
  <!-- 高光效果 -->
  <ellipse cx="18" cy="15" rx="5" ry="3" fill="rgba(255,255,255,0.3)"/>
  
  <!-- 装饰性元素 -->
  <circle cx="10" cy="18" r="1.5" fill="rgba(255,255,255,0.6)"/>
  <circle cx="38" cy="30" r="1.5" fill="rgba(255,255,255,0.6)"/>
</svg>